<?xml version="1.0" standalone="no"?>
<!DOCTYPE svg PUBLIC "-//W3C//DTD SVG 20010904//EN"
 "http://www.w3.org/TR/2001/REC-SVG-20010904/DTD/svg10.dtd">
<svg version="1.0" xmlns="http://www.w3.org/2000/svg"
 width="1254.000000pt" height="1254.000000pt" viewBox="0 0 1254.000000 1254.000000"
 preserveAspectRatio="xMidYMid meet">

<g transform="translate(0.000000,1254.000000) scale(0.100000,-0.100000)"
fill="#000000" stroke="none">
<path d="M6430 11348 c-404 -469 -877 -1035 -1016 -1217 -12 -15 -38 -2 -168
81 -33 21 -66 38 -75 38 -18 0 -82 -64 -223 -220 -47 -52 -154 -172 -239 -266
-85 -93 -237 -263 -339 -377 -101 -114 -188 -207 -193 -207 -5 0 -38 21 -75
47 -120 85 -345 246 -425 305 -74 54 -111 70 -119 49 -1 -5 -136 -145 -298
-312 -347 -358 -503 -519 -626 -649 -50 -52 -151 -158 -225 -235 -208 -217
-399 -423 -399 -430 0 -4 13 4 29 17 16 13 111 88 212 168 236 186 444 350
589 465 63 50 178 140 255 200 120 92 147 119 193 187 31 46 103 128 175 198
l122 119 23 -22 c62 -57 142 -170 159 -223 l17 -56 97 -49 97 -48 -53 -128
c-29 -70 -56 -139 -60 -153 -4 -17 31 14 112 96 573 584 812 833 835 874 17
29 88 104 188 196 88 82 164 150 168 152 4 1 34 -25 66 -57 l59 -60 -46 -128
c-153 -429 -177 -497 -173 -500 4 -5 207 250 446 562 187 242 247 309 398 444
l83 73 104 208 c91 182 120 228 231 376 70 93 130 173 134 177 4 4 51 -93 106
-215 l99 -223 -3 -109 c-2 -60 0 -122 3 -137 6 -27 96 -98 242 -193 39 -26
134 -167 422 -626 24 -39 45 -69 47 -67 2 1 -4 32 -12 67 -8 36 -19 85 -24
110 -13 63 -69 311 -76 333 -3 9 -1 17 4 17 5 0 74 -52 153 -116 79 -64 167
-127 194 -141 35 -17 113 -88 263 -236 116 -117 212 -217 212 -223 0 -6 -13
-29 -28 -50 -30 -41 -343 -509 -357 -532 -15 -28 30 7 131 100 56 51 170 156
254 233 101 92 168 163 200 210 26 38 76 95 111 125 35 30 78 67 95 83 l32 27
74 -87 c141 -167 187 -236 215 -319 16 -49 37 -89 53 -104 15 -14 81 -51 146
-84 66 -32 133 -71 149 -86 41 -37 784 -627 947 -751 72 -55 122 -89 111 -75
-24 30 -570 628 -763 836 -75 80 -216 233 -315 340 -413 451 -596 640 -618
640 -15 0 -71 -51 -187 -171 l-165 -170 -181 218 c-458 552 -688 822 -1099
1288 -284 323 -398 445 -414 445 -9 0 -36 -23 -61 -52z"/>
<path d="M6610 9053 c-61 -6 -224 -45 -255 -61 -54 -27 -94 -63 -123 -111 -16
-25 -50 -71 -76 -101 -83 -96 -102 -151 -71 -210 29 -57 259 -231 324 -245 19
-4 41 0 60 9 56 30 64 133 20 271 -19 59 -38 256 -20 205 5 -14 9 -38 10 -55
1 -16 17 -81 36 -144 40 -128 43 -187 15 -248 -26 -59 -73 -81 -132 -64 -56
17 -108 48 -192 116 -38 30 -72 55 -76 55 -3 0 -17 -26 -30 -57 -41 -103 -158
-326 -220 -421 -40 -62 -90 -121 -148 -175 -304 -285 -350 -338 -509 -576
-152 -228 -222 -397 -258 -621 -9 -58 -18 -115 -21 -127 -5 -25 7 -23 -344
-46 -118 -8 -218 -12 -222 -10 -5 2 -8 40 -8 83 l0 79 35 -15 c40 -16 95 -19
95 -3 0 6 8 8 18 5 19 -7 103 32 109 50 2 6 -14 16 -36 22 -47 15 -75 42 -43
42 34 0 34 17 0 38 -18 12 -46 34 -62 51 -26 27 -27 31 -10 31 25 1 104 36
104 48 0 4 -18 16 -39 26 -22 9 -54 33 -72 54 l-32 36 30 8 c16 4 38 16 47 27
17 19 17 20 -12 35 -17 9 -46 35 -67 58 l-36 43 36 6 c20 3 43 13 51 21 14 14
12 18 -18 36 -34 21 -78 73 -78 92 0 5 9 10 19 10 11 0 27 7 36 16 15 15 14
18 -14 35 -36 22 -52 56 -75 162 -10 43 -20 76 -23 74 -2 -3 -16 -52 -31 -108
-24 -93 -30 -106 -59 -124 -42 -26 -37 -41 20 -59 35 -11 -20 -80 -88 -110
-16 -7 35 -46 61 -46 13 0 24 -3 24 -6 0 -17 -59 -78 -94 -96 l-40 -20 23 -19
c22 -18 41 -23 69 -20 6 1 12 -4 12 -12 0 -18 -84 -97 -103 -97 -7 0 -22 -6
-33 -14 -18 -14 -17 -16 26 -35 25 -11 56 -21 69 -21 l25 0 -30 -31 c-16 -17
-44 -39 -62 -51 -34 -21 -34 -38 -1 -38 35 0 20 -17 -38 -43 l-56 -25 34 -21
c20 -13 43 -19 57 -16 15 4 22 1 22 -9 0 -11 14 -13 63 -11 34 1 70 6 80 10
15 6 17 -1 17 -77 l0 -84 -117 -13 c-65 -7 -224 -30 -353 -52 -129 -21 -236
-39 -237 -39 -2 0 -3 43 -3 95 0 52 3 95 8 95 4 -1 32 -9 62 -20 30 -11 70
-19 88 -20 28 0 32 3 28 18 -6 17 -1 18 46 15 43 -4 63 1 108 24 30 15 56 35
57 43 1 10 -26 28 -77 53 -81 38 -99 57 -57 57 12 0 33 7 46 16 l23 16 -52 30
c-29 16 -73 51 -99 76 l-46 47 53 6 c56 7 132 49 132 73 0 7 -29 27 -64 45
-43 21 -78 48 -110 85 -25 30 -46 57 -46 60 0 3 15 6 33 6 39 0 111 39 115 62
2 11 -8 23 -27 33 -44 22 -98 72 -131 120 l-29 43 38 6 c36 5 91 45 91 65 0 5
-19 20 -42 33 -36 19 -118 110 -118 129 0 4 13 9 30 12 55 11 92 70 53 84 -65
23 -94 76 -127 238 -31 149 -34 148 -77 -19 -21 -82 -46 -160 -55 -173 -8 -14
-31 -31 -50 -39 -57 -24 -38 -71 38 -89 l27 -7 -18 -37 c-24 -45 -77 -96 -114
-110 -19 -7 -27 -17 -25 -28 5 -25 66 -63 100 -63 25 0 27 -3 19 -18 -23 -42
-105 -122 -146 -142 -25 -12 -45 -26 -45 -31 0 -6 12 -21 26 -34 24 -22 45
-29 112 -37 21 -3 20 -6 -23 -60 -35 -45 -59 -64 -115 -90 -38 -18 -68 -37
-66 -43 7 -26 87 -68 136 -73 l52 -5 -49 -49 c-26 -27 -70 -61 -96 -74 -40
-21 -46 -28 -37 -39 7 -8 27 -17 46 -21 19 -3 34 -9 34 -13 0 -10 -102 -69
-133 -76 -15 -4 -29 -10 -31 -14 -15 -24 66 -71 123 -71 34 0 42 -3 38 -15 -4
-8 -2 -17 3 -20 9 -5 79 8 115 21 15 6 17 4 12 -11 -6 -15 -3 -17 24 -11 18 3
46 13 62 21 17 8 32 15 34 15 1 0 3 -47 3 -104 l0 -104 -112 -27 c-141 -33
-350 -93 -487 -140 -58 -19 -106 -35 -108 -35 -2 0 -3 27 -3 60 0 59 1 60 21
49 26 -14 95 -4 156 22 40 17 51 39 20 39 -7 0 -23 9 -37 20 -20 16 -22 20 -7
20 9 0 17 5 17 10 0 6 -4 10 -10 10 -16 0 -80 61 -74 71 3 5 15 9 27 9 13 0
33 7 46 17 l24 16 -39 20 c-72 36 -110 87 -65 87 10 0 29 8 42 19 l23 18 -31
17 c-31 15 -73 60 -73 77 0 5 6 9 14 9 8 0 24 9 37 21 20 16 21 21 9 26 -19 8
-80 68 -80 80 0 5 13 14 30 20 37 14 38 26 4 41 -29 14 -47 53 -64 140 -7 34
-16 62 -20 62 -5 0 -16 -35 -25 -77 -19 -87 -35 -118 -65 -128 -29 -9 -25 -25
10 -38 17 -6 30 -16 30 -22 0 -16 -60 -75 -76 -75 -7 0 -15 -4 -19 -10 -7 -11
52 -43 65 -35 5 3 11 2 14 -3 8 -14 -50 -78 -84 -92 -29 -12 -30 -14 -14 -31
10 -11 30 -19 46 -19 15 0 28 -4 28 -9 0 -15 -82 -81 -108 -88 -22 -5 -22 -6
-6 -24 10 -11 35 -22 56 -25 38 -6 38 -7 21 -26 -10 -11 -30 -27 -45 -36 -31
-18 -36 -32 -13 -32 27 0 15 -17 -25 -35 -22 -10 -40 -22 -40 -26 0 -12 35
-29 59 -29 12 0 21 -4 21 -10 0 -5 29 -8 70 -6 l70 3 0 -64 0 -64 -52 -22
c-150 -61 -521 -267 -481 -267 6 0 49 14 95 31 697 259 1534 423 2396 470 112
6 206 8 209 5 11 -10 -138 -76 -265 -116 -235 -74 -309 -125 -342 -237 -36
-119 57 -249 200 -278 l35 -7 -24 26 c-33 35 -23 41 20 12 61 -41 121 -58 215
-64 107 -5 186 7 321 49 118 38 219 44 271 16 17 -10 32 -16 32 -13 0 2 -9 24
-19 49 -63 147 -222 212 -461 188 -152 -15 -250 4 -250 48 0 38 58 70 220 121
87 28 175 62 195 76 36 24 65 26 65 5 0 -5 17 -20 38 -33 34 -21 47 -23 177
-23 178 1 620 14 703 21 76 7 96 23 88 72 -7 43 -48 88 -95 103 -35 12 -238 7
-288 -7 -35 -10 -27 9 13 31 59 32 141 122 175 191 81 170 76 334 -13 430 -52
57 -121 79 -211 69 -52 -6 -60 -5 -49 6 7 8 42 15 86 17 59 3 83 0 125 -18 96
-42 161 -146 161 -258 0 -45 2 -51 14 -40 7 7 36 31 64 53 28 22 51 45 52 51
0 7 -9 63 -20 125 -32 185 -25 203 15 40 35 -139 65 -321 65 -389 1 -34 7 -65
15 -76 8 -11 15 -35 15 -53 0 -32 0 -33 -42 -28 -24 2 -91 7 -149 10 -104 5
-107 4 -122 -19 -9 -12 -30 -37 -47 -54 l-32 -32 77 0 c78 0 133 -16 170 -49
16 -15 45 -20 160 -25 653 -31 1676 -215 2401 -431 179 -54 554 -178 574 -190
5 -3 10 -4 10 -1 0 7 -152 83 -331 166 -506 235 -1186 431 -1842 531 -148 23
-148 23 -161 53 -19 45 -49 67 -108 81 -34 7 -58 19 -70 36 -40 54 -55 252
-40 529 10 166 14 194 41 270 17 47 36 87 42 89 8 2 10 -2 6 -13 -4 -9 -3 -16
2 -16 13 0 51 149 51 199 0 25 4 40 10 36 6 -3 10 -17 10 -31 0 -16 4 -23 11
-18 19 12 5 200 -19 263 -25 65 -20 78 15 36 l25 -30 -6 55 c-4 30 -17 76 -30
103 -26 53 -23 57 12 25 l24 -23 -7 35 c-4 19 -23 66 -42 104 -58 116 -54 227
11 292 25 25 59 40 147 68 62 20 128 44 144 55 34 21 70 77 56 86 -6 3 -1 21
12 43 16 26 22 54 22 99 1 34 4 65 8 69 13 13 7 61 -9 74 -12 11 -40 11 -136
3 -160 -13 -177 -9 -241 53 -42 41 -63 54 -105 63 -52 11 -63 11 -132 4z m-86
-1956 c-11 -14 -32 -41 -48 -61 l-29 -37 28 -102 c43 -155 64 -258 65 -303 0
-23 6 -47 14 -53 16 -13 60 -111 53 -117 -3 -3 -28 -2 -56 2 -46 6 -53 10 -65
39 -10 24 -24 36 -53 45 -51 17 -55 21 -64 77 -9 62 8 514 21 527 7 7 10 -14
11 -59 l0 -70 66 72 c37 40 68 71 71 68 2 -2 -4 -15 -14 -28z"/>
<path d="M10360 5016 c-116 -34 -194 -99 -243 -204 -56 -120 -48 -283 20 -399
93 -159 333 -219 512 -128 64 32 135 112 162 183 43 112 34 274 -21 383 -28
53 -112 125 -178 149 -70 27 -190 35 -252 16z m209 -64 c120 -73 175 -331 109
-510 -41 -113 -145 -178 -244 -153 -90 23 -151 84 -194 196 -33 86 -33 244 0
330 60 154 202 213 329 137z"/>
<path d="M11335 5016 c-120 -30 -208 -100 -259 -206 -29 -61 -31 -72 -31 -180
0 -110 2 -118 33 -182 56 -115 153 -179 300 -199 101 -14 194 0 281 41 l60 29
3 123 3 123 30 15 30 15 -60 6 c-73 8 -215 -1 -215 -12 0 -5 8 -9 19 -9 10 0
30 -9 45 -21 25 -20 26 -24 26 -124 0 -102 -1 -105 -27 -122 -17 -12 -52 -19
-100 -21 -89 -5 -140 16 -206 86 -67 72 -90 143 -91 272 0 125 22 195 82 257
59 61 100 76 196 71 106 -4 148 -29 195 -117 18 -34 37 -59 42 -56 5 4 9 41 9
84 l0 78 -42 16 c-123 47 -226 57 -323 33z"/>
<path d="M1154 5005 c-161 -431 -247 -652 -260 -672 -9 -14 -29 -30 -45 -36
-16 -6 -29 -17 -29 -24 0 -10 26 -13 105 -13 87 0 105 3 105 15 0 8 -8 15 -18
15 -11 0 -27 9 -37 20 -17 19 -16 22 11 102 l29 83 143 3 c78 1 142 1 142 0 0
-2 11 -34 25 -72 35 -98 31 -136 -17 -136 -10 0 -18 -7 -18 -15 0 -13 22 -15
140 -15 118 0 140 2 140 15 0 8 -6 15 -14 15 -47 0 -66 39 -274 575 l-59 150
-33 0 c-18 0 -34 -4 -36 -10z m68 -297 c31 -84 54 -156 52 -160 -3 -4 -57 -8
-120 -8 -92 0 -114 3 -114 14 0 8 20 68 44 133 25 65 47 130 51 146 4 15 12
27 19 27 6 0 37 -69 68 -152z"/>
<path d="M1775 5001 c-6 -11 1 -16 37 -25 17 -4 30 -16 37 -37 12 -35 14 -555
2 -599 -4 -15 -21 -32 -44 -43 -20 -10 -37 -23 -37 -29 0 -7 76 -9 228 -6 205
4 233 7 284 27 75 29 150 97 185 169 26 53 28 66 28 177 0 116 -1 123 -33 187
-49 99 -133 158 -253 178 -80 12 -426 13 -434 1z m422 -17 c-3 -3 -12 -4 -19
-1 -8 3 -5 6 6 6 11 1 17 -2 13 -5z m8 -38 c51 -23 103 -73 129 -124 43 -83
46 -268 6 -359 -46 -107 -152 -169 -276 -161 -35 2 -67 7 -71 12 -10 10 -19
336 -15 519 l4 137 86 0 c70 0 97 -5 137 -24z"/>
<path d="M2657 5004 c-10 -10 2 -24 22 -24 10 0 27 -10 38 -22 12 -13 83 -177
159 -366 l137 -343 30 3 c33 3 10 -47 229 508 71 179 79 195 119 212 16 7 29
19 29 25 0 16 -205 19 -215 3 -3 -6 2 -13 12 -16 77 -24 76 -28 -11 -261 -43
-114 -89 -232 -103 -263 l-25 -55 -20 45 c-11 25 -56 137 -99 250 -94 241 -96
262 -26 284 10 3 15 10 12 16 -7 11 -277 14 -288 4z"/>
<path d="M3620 4995 c0 -9 9 -15 24 -15 53 0 56 -18 56 -347 0 -290 -1 -304
-20 -323 -11 -11 -29 -20 -40 -20 -11 0 -20 -7 -20 -15 0 -13 38 -15 284 -15
157 0 287 3 289 8 3 4 8 46 12 95 8 99 -2 112 -36 45 -32 -65 -57 -86 -113
-99 -71 -15 -214 -9 -226 11 -5 8 -10 81 -10 163 l0 147 68 -1 c96 -1 114 -9
140 -57 13 -23 28 -42 33 -42 5 0 9 51 9 115 0 96 -3 115 -15 115 -8 0 -15 -7
-15 -16 0 -8 -13 -29 -29 -45 -28 -27 -34 -29 -110 -29 l-82 0 3 148 3 147
105 3 c128 4 156 -7 195 -79 14 -27 31 -49 36 -49 6 0 9 33 7 83 l-3 82 -272
3 c-239 2 -273 0 -273 -13z"/>
<path d="M4427 5004 c-10 -11 3 -24 23 -24 10 0 28 -12 39 -26 20 -26 21 -38
20 -288 -1 -332 -3 -345 -51 -369 -21 -10 -38 -23 -38 -28 0 -5 50 -9 111 -9
84 0 110 3 107 13 -3 6 -14 13 -25 15 -12 2 -29 12 -39 24 -17 18 -19 43 -22
284 -2 145 1 264 5 264 10 0 28 -22 190 -236 243 -321 283 -369 310 -369 l25
0 3 342 c2 188 6 347 10 354 4 6 23 17 42 25 18 8 31 19 28 24 -10 16 -215 13
-215 -3 0 -7 15 -17 32 -22 54 -16 58 -36 58 -282 0 -123 -4 -223 -9 -223 -4
0 -102 121 -217 270 l-209 270 -86 0 c-47 0 -89 -3 -92 -6z"/>
<path d="M5357 4943 c-14 -142 -6 -153 40 -63 35 68 74 90 156 90 l57 0 0
-320 c0 -307 -1 -321 -20 -340 -11 -11 -29 -20 -40 -20 -11 0 -20 -7 -20 -15
0 -13 23 -15 145 -15 146 0 176 8 110 30 -19 6 -40 20 -45 30 -6 11 -10 145
-10 334 l0 316 72 0 c70 0 72 -1 109 -39 20 -22 42 -56 49 -76 20 -60 33 -37
31 55 -1 46 -5 88 -7 92 -3 4 -144 8 -313 8 l-308 0 -6 -67z"/>
<path d="M6177 5004 c-10 -11 3 -24 23 -24 10 0 26 -10 34 -22 13 -19 16 -62
16 -263 0 -132 5 -256 10 -276 32 -115 127 -173 280 -173 125 0 196 35 247
122 l28 47 5 261 c5 278 7 286 57 305 50 19 21 29 -82 29 -87 0 -105 -3 -105
-15 0 -8 9 -15 20 -15 11 0 29 -9 40 -20 19 -19 20 -33 20 -240 0 -248 -8
-306 -52 -356 -29 -33 -103 -64 -152 -64 -73 0 -147 48 -177 115 -16 35 -19
69 -19 283 0 229 1 243 20 262 11 11 27 20 35 20 8 0 15 7 15 15 0 13 -21 15
-128 15 -71 0 -132 -3 -135 -6z"/>
<path d="M7090 4996 c0 -9 8 -16 20 -16 11 0 29 -9 40 -20 19 -19 20 -33 20
-325 0 -292 -1 -306 -20 -325 -11 -11 -29 -20 -40 -20 -11 0 -20 -7 -20 -15 0
-13 22 -15 141 -15 105 0 140 3 137 12 -3 7 -17 15 -33 20 -15 4 -32 13 -36
20 -5 7 -9 75 -9 151 l0 137 45 0 44 0 85 -144 c47 -79 99 -155 115 -169 36
-29 95 -42 157 -32 50 7 54 24 10 36 -41 11 -60 32 -133 148 -37 58 -77 120
-90 137 -31 42 -29 49 15 62 55 17 107 71 121 126 24 95 -10 172 -94 215 -48
25 -57 26 -262 29 -190 4 -213 2 -213 -12z m366 -42 c76 -36 105 -138 66 -228
-27 -59 -78 -85 -169 -86 l-63 0 0 165 0 165 66 0 c40 0 79 -6 100 -16z"/>
<path d="M7962 4998 c3 -7 14 -14 26 -16 50 -7 52 -24 52 -353 0 -279 -2 -307
-17 -321 -10 -9 -27 -18 -37 -19 -11 -2 -21 -10 -24 -16 -3 -10 59 -13 286
-13 l290 0 7 68 c11 110 11 115 -2 119 -7 2 -18 -11 -26 -29 -22 -52 -65 -97
-105 -108 -59 -16 -204 -13 -230 6 -21 14 -22 21 -22 165 l0 149 78 0 c89 0
116 -13 138 -66 25 -60 34 -39 34 81 0 120 -9 141 -34 81 -20 -47 -42 -56
-136 -56 l-81 0 3 148 3 147 110 3 c131 3 162 -10 197 -83 20 -41 45 -56 42
-27 -1 7 -2 44 -2 82 l-2 70 -276 0 c-216 0 -275 -3 -272 -12z"/>
<path d="M9152 4998 c3 -7 14 -14 25 -16 52 -8 53 -15 53 -346 1 -168 -2 -311
-6 -317 -3 -6 -22 -17 -40 -25 -73 -31 -40 -36 194 -32 211 4 231 6 287 28
156 63 236 229 205 425 -21 130 -96 224 -213 266 -55 20 -86 23 -286 27 -184
3 -223 2 -219 -10z m433 -55 c113 -60 176 -201 160 -362 -19 -184 -134 -290
-302 -279 -49 3 -69 9 -79 23 -11 15 -14 81 -14 325 0 169 3 310 8 314 4 5 48
6 97 4 66 -3 101 -10 130 -25z"/>
<path d="M3181 3717 c-52 -31 -68 -108 -28 -145 12 -11 51 -31 87 -44 58 -21
65 -26 68 -53 7 -54 -60 -73 -130 -36 -35 19 -36 19 -53 1 -15 -17 -15 -19 7
-34 53 -37 158 -44 199 -13 39 29 51 95 25 133 -8 11 -46 33 -85 48 -80 31
-98 52 -75 84 18 26 78 30 111 7 18 -13 22 -12 38 5 16 18 15 19 -10 36 -35
23 -122 29 -154 11z"/>
<path d="M3560 3551 l0 -176 120 3 c111 3 120 5 120 23 0 17 -8 19 -90 19
l-90 0 0 55 0 55 75 0 c73 0 75 1 75 25 0 24 -2 25 -75 25 l-75 0 0 50 0 50
93 1 c64 1 83 4 62 9 l-30 8 28 1 c15 0 27 7 27 14 0 9 -31 12 -120 13 l-120
1 0 -176z"/>
<path d="M4000 3553 l0 -179 28 2 c27 1 27 2 27 65 0 68 -3 66 58 60 15 -1 34
-21 61 -66 35 -56 44 -64 68 -62 15 1 28 4 28 7 0 3 -18 32 -39 65 l-38 60 35
31 c31 27 35 36 35 77 0 35 -5 53 -23 72 -25 27 -42 31 -157 41 l-83 6 0 -179z
m147 141 c-3 -3 -12 -4 -19 -1 -8 3 -5 6 6 6 11 1 17 -2 13 -5z m37 -35 c31
-25 34 -61 6 -89 -15 -15 -33 -20 -73 -20 -30 0 -56 2 -58 4 -2 2 -2 32 -1 65
l4 61 48 0 c33 0 55 -6 74 -21z"/>
<path d="M4464 3721 c-2 -2 -4 -80 -4 -173 l0 -168 30 0 30 0 0 60 0 60 39 0
c37 0 41 -4 80 -64 36 -55 45 -63 71 -62 17 1 30 2 30 4 0 2 -18 30 -41 63
l-40 59 37 35 c35 33 36 37 32 85 -6 62 -26 85 -87 100 -44 10 -167 11 -177 1z
m23 -63 c-3 -7 -5 -2 -5 12 0 14 2 19 5 13 2 -7 2 -19 0 -25z m20 -70 c-2 -18
-4 -4 -4 32 0 36 2 50 4 33 2 -18 2 -48 0 -65z m141 76 c15 -10 22 -25 22 -49
0 -50 -21 -65 -91 -65 l-59 0 0 65 0 65 53 0 c31 0 61 -6 75 -16z"/>
<path d="M4930 3555 l0 -175 118 0 c111 0 118 1 119 20 2 19 -4 20 -88 20
l-89 0 0 55 0 55 75 0 c73 0 75 1 75 25 0 24 -2 25 -75 25 l-75 0 0 50 0 50
89 0 88 0 -5 25 c-4 25 -5 25 -118 25 l-114 0 0 -175z"/>
<path d="M5765 3716 c-57 -25 -105 -103 -105 -172 0 -67 58 -147 121 -166 46
-13 114 -4 158 23 l34 20 -21 22 c-20 20 -22 20 -41 3 -25 -23 -89 -30 -121
-14 -35 19 -70 76 -70 115 0 100 96 162 182 117 27 -14 32 -14 45 -1 46 46
-102 88 -182 53z"/>
<path d="M6150 3555 l2 -175 28 0 c29 0 29 0 32 73 l3 72 88 3 87 3 0 -76 0
-75 33 1 32 1 -30 8 c-16 4 -22 8 -13 9 15 1 16 5 7 28 -7 20 -6 28 3 35 7 4
9 8 5 8 -5 0 -1 7 8 17 14 14 16 33 12 126 l-5 110 -26 2 c-26 1 -26 0 -26
-71 l0 -71 -41 -7 c-22 -4 -63 -4 -90 0 l-49 7 0 73 0 74 -30 0 -31 0 1 -175z"/>
<path d="M6660 3554 l0 -174 120 0 c113 0 120 1 120 20 0 19 -7 20 -90 20
l-90 0 0 55 0 55 75 0 c73 0 75 1 75 25 0 24 -2 25 -75 25 l-75 0 0 50 0 50
89 0 c85 0 88 1 87 23 -1 21 -4 22 -118 23 l-118 2 0 -174z"/>
<path d="M7080 3714 c0 -11 44 -131 108 -292 9 -24 20 -43 25 -43 4 1 18 1 31
1 22 0 30 16 90 165 36 91 66 169 66 173 0 4 -12 7 -27 6 -26 -1 -31 -9 -75
-125 -26 -68 -49 -128 -51 -134 -8 -18 -18 2 -66 131 -44 120 -50 129 -74 130
-16 1 -27 -4 -27 -12z"/>
<path d="M7618 3571 c-87 -210 -85 -198 -49 -193 23 3 32 12 44 43 l15 39 84
0 84 0 14 -42 c13 -37 19 -43 40 -40 14 2 26 5 28 7 2 1 -20 58 -48 126 -89
216 -88 214 -119 215 -28 1 -31 -5 -93 -155z m120 27 c11 -29 23 -61 27 -70 6
-16 0 -18 -54 -18 -34 0 -61 2 -61 5 0 14 53 135 60 135 4 0 16 -24 28 -52z"/>
<path d="M8070 3554 l0 -174 115 0 c108 0 115 1 115 20 0 18 -7 20 -85 20
l-84 0 -3 151 -3 152 -27 3 -28 3 0 -175z"/>
<path d="M8490 3555 l0 -175 30 0 30 0 0 175 0 175 -30 0 -30 0 0 -175z"/>
<path d="M8770 3640 c-1 -49 -1 -128 -1 -175 -1 -47 2 -85 5 -85 3 0 57 0 119
0 106 0 113 1 114 20 2 19 -4 20 -87 20 -52 0 -92 4 -95 11 -4 6 -4 30 0 55
l6 44 75 0 c72 0 74 1 74 25 0 24 -2 25 -74 25 l-73 0 -7 41 c-4 22 -4 44 -1
50 4 5 44 9 91 9 82 0 84 1 84 24 0 24 -1 24 -115 25 l-115 2 0 -91z"/>
<path d="M9209 3673 c-1 -32 -2 -112 -3 -178 l-1 -120 28 -1 c27 -1 27 0 27
62 l0 64 39 0 c37 0 41 -4 80 -64 36 -55 45 -63 71 -62 17 1 30 2 30 4 0 2
-18 30 -41 63 l-40 59 35 34 c31 29 36 40 36 79 0 85 -52 116 -192 117 l-68 0
-1 -57z m186 -18 c14 -13 25 -31 25 -40 0 -9 -11 -27 -25 -40 -20 -21 -34 -25
-80 -25 l-55 0 0 65 0 65 55 0 c46 0 60 -4 80 -25z"/>
<path d="M5350 3545 c0 -27 17 -31 81 -18 33 7 33 7 9 14 l-25 7 27 1 c17 1
28 -5 31 -16 3 -11 5 -7 6 10 1 27 1 27 -64 27 -63 0 -65 -1 -65 -25z"/>
<path d="M6351 2991 c-28 -28 -38 -88 -20 -120 20 -35 44 -37 74 -7 19 19 25
35 25 70 0 69 -39 97 -79 57z"/>
<path d="M6179 2979 c-14 -27 -6 -97 14 -117 19 -18 66 -19 78 -1 14 22 10 77
-6 109 -19 38 -68 42 -86 9z"/>
<path d="M6082 2868 c-17 -17 -15 -79 4 -106 17 -24 62 -30 82 -10 21 21 14
73 -13 102 -26 28 -54 33 -73 14z"/>
<path d="M6457 2860 c-52 -41 -43 -120 13 -120 23 0 33 7 45 30 26 51 15 110
-21 110 -6 0 -23 -9 -37 -20z"/>
<path d="M6263 2795 c-35 -24 -113 -135 -113 -160 0 -44 24 -52 121 -39 36 4
69 2 93 -6 31 -10 41 -9 61 4 41 27 33 58 -32 145 -53 69 -89 85 -130 56z"/>
</g>
</svg>
