<svg xmlns="http://www.w3.org/2000/svg" viewBox="0 0 520 360" role="img" aria-labelledby="title desc">
  <title id="title">Adventure Dog – Serre-Chevalier</title>
  <desc id="desc">Logo minimaliste une couleur avec montagne, chien assis et sentier.</desc>
  <g fill="none" stroke="currentColor" stroke-width="16" stroke-linecap="round" stroke-linejoin="round">
    <path d="M54 154 142 72l55 55 99-115 153 165"/>
    <path d="M196 127 223 97l16 38"/>
    <path d="M318 86 350 126l-11 49"/>
    <path d="M80 255c93-32 235-35 360 12" stroke-width="9" opacity=".85"/>
  </g>
  <g fill="currentColor">
    <path d="M281 226c-24 0-45-18-45-43 0-16 10-35 25-51 7-8 12-18 15-28 4-13 15-21 29-21 16 0 29 9 34 23 10 2 18 7 22 14 2 3 1 7-2 9-7 6-18 6-27 2-4 11-2 26 7 41 8 14 12 30 7 46-8 24-33 37-65 37Zm2-20c19 0 35-9 41-25 4-10 1-20-5-31-9-16-13-34-8-50-2-1-4-1-6-1-7 0-11 4-14 12-4 13-11 26-21 37-12 13-18 26-18 36 0 13 13 22 31 22Z"/>
    <circle cx="328" cy="113" r="4"/>
    <path d="M248 209c-10 8-26 10-41 5-11-4-20-1-25 7-5 9 2 20 17 22 20 3 39-4 57-19Z"/>
    <path d="M215 250c18-7 35-5 49 9 4 4 4 10 0 14-4 4-10 4-14 0-8-8-18-9-30-4-9 3-16 2-21-5-4-7 0-12 16-14Z" opacity=".92"/>
  </g>
  <g fill="currentColor" opacity=".9">
    <path d="M78 250h16v-31l14 11-22-43-23 43 15-11z"/>
    <path d="M118 244h20v-42l18 14-28-56-29 56 19-14z"/>
    <path d="M160 247h18v-35l16 12-25-49-25 49 16-12z"/>
  </g>
  <g fill="currentColor">
    <path d="M109 324c0-9 7-15 16-15s16 6 16 15-7 15-16 15-16-6-16-15Zm36 0c0-8 7-14 15-14s15 6 15 14-7 14-15 14-15-6-15-14Zm-62 0c0-8 7-14 15-14s15 6 15 14-7 14-15 14-15-6-15-14Zm31 14c10-10 21-10 31 0 9 8 7 22-8 22h-15c-15 0-18-14-8-22Z" transform="translate(150 -24) scale(.42)"/>
  </g>
</svg>
